<svg width="68" height="54" viewBox="0 0 68 54" fill="none" xmlns="http://www.w3.org/2000/svg">
<path d="M0 0V54H67.3573V0H0Z" fill="#9700CC"/>
<path d="M24.5029 34.1118C24.51 34.3466 24.4689 34.5805 24.3819 34.7995C24.2949 35.0185 24.1639 35.2182 23.9965 35.3868C23.8292 35.5554 23.629 35.6894 23.4078 35.7809C23.1865 35.8724 22.9487 35.9196 22.7085 35.9196C22.4683 35.9196 22.2305 35.8724 22.0093 35.7809C21.788 35.6894 21.5878 35.5554 21.4205 35.3868C21.2531 35.2182 21.1221 35.0185 21.0351 34.7995C20.9482 34.5805 20.907 34.3466 20.9141 34.1118V24.3007L17.4689 34.3787C17.3024 34.8242 17.0028 35.2104 16.6089 35.4871C16.2151 35.7639 15.7453 35.9185 15.2605 35.9308H15.2447C14.7599 35.9185 14.2901 35.7639 13.8963 35.4871C13.5025 35.2104 13.2028 34.8242 13.0363 34.3787L9.58948 24.3007V34.1118C9.59658 34.3466 9.55548 34.5805 9.46848 34.7995C9.38148 35.0185 9.25048 35.2182 9.08318 35.3868C8.91588 35.5554 8.71558 35.6894 8.49438 35.7809C8.27308 35.8724 8.03538 35.9196 7.79518 35.9196C7.55488 35.9196 7.31719 35.8724 7.09589 35.7809C6.87469 35.6894 6.67438 35.5554 6.50708 35.3868C6.33978 35.2182 6.20878 35.0185 6.12178 34.7995C6.03478 34.5805 5.99369 34.3466 6.00079 34.1118V18.8174C6.00079 18.3354 6.19658 17.8731 6.54508 17.5323C6.89358 17.1914 7.36619 17 7.85899 17H8.93169C9.41639 17.0117 9.88628 17.1659 10.2802 17.4425C10.6741 17.719 10.9737 18.1051 11.1402 18.5505L15.2542 30.5123L19.3666 18.5505C19.534 18.1057 19.8339 17.7202 20.2276 17.4438C20.6213 17.1674 21.0907 17.0128 21.5751 17H22.6478C23.1404 17.0008 23.6125 17.1925 23.9608 17.5332C24.3092 17.8739 24.5052 18.3357 24.506 18.8174L24.5029 34.1118ZM41.5742 20.4575H36.7929V34.2722C36.8053 34.507 36.7688 34.7418 36.6855 34.9623C36.6022 35.1828 36.4738 35.3844 36.3083 35.5548C36.1428 35.7253 35.9436 35.861 35.7228 35.9538C35.5019 36.0466 35.2641 36.0944 35.0238 36.0944C34.7834 36.0944 34.5456 36.0466 34.3247 35.9538C34.1039 35.861 33.9047 35.7253 33.7392 35.5548C33.5737 35.3844 33.4454 35.1828 33.3621 34.9623C33.2788 34.7418 33.2422 34.507 33.2546 34.2722V20.459H28.4734C28.0236 20.459 27.5923 20.2843 27.2742 19.9733C26.9562 19.6622 26.7776 19.2404 26.7776 18.8005C26.7776 18.3606 26.9562 17.9387 27.2742 17.6277C27.5923 17.3166 28.0236 17.1419 28.4734 17.1419H41.5742C42.0239 17.1419 42.4549 17.3166 42.7729 17.6277C43.0909 17.9387 43.2699 18.3606 43.2699 18.8005C43.2699 19.2404 43.0909 19.6622 42.7729 19.9733C42.4549 20.2843 42.0239 20.459 41.5742 20.459V20.4575ZM60.5539 20.4575H55.7779V34.2722C55.7879 34.5059 55.7489 34.7392 55.6649 34.958C55.5809 35.1768 55.4519 35.3766 55.2859 35.5455C55.1209 35.7143 54.9219 35.8487 54.7019 35.9404C54.4819 36.0322 54.2449 36.0795 54.0059 36.0795C53.7669 36.0795 53.5299 36.0322 53.3109 35.9404C53.0909 35.8487 52.8919 35.7143 52.7259 35.5455C52.5609 35.3766 52.4319 35.1768 52.3479 34.958C52.2629 34.7392 52.2249 34.5059 52.2349 34.2722V20.459H47.4569C47.0069 20.459 46.5759 20.2843 46.2579 19.9733C45.9399 19.6622 45.7609 19.2404 45.7609 18.8005C45.7609 18.3606 45.9399 17.9387 46.2579 17.6277C46.5759 17.3166 47.0069 17.1419 47.4569 17.1419H60.5499C60.9989 17.1419 61.4309 17.3166 61.7489 17.6277C62.0669 17.9387 62.2449 18.3606 62.2449 18.8005C62.2449 19.2404 62.0669 19.6622 61.7489 19.9733C61.4309 20.2843 60.9989 20.459 60.5499 20.459L60.5539 20.4575Z" fill="white"/>
</svg>
