<svg width="48" height="48" viewBox="0 0 48 48" fill="none" xmlns="http://www.w3.org/2000/svg"><rect width="48" height="48" rx="7" fill="#D41A1A"/><path fill-rule="evenodd" clip-rule="evenodd" d="M14.7733 9.88232C12.1743 9.88232 10.0674 11.9892 10.0674 14.5882V33.4117C10.0674 36.0107 12.1743 38.1176 14.7733 38.1176H33.5968C36.1958 38.1176 38.3027 36.0107 38.3027 33.4117V14.5882C38.3027 11.9892 36.1958 9.88232 33.5968 9.88232H14.7733ZM16.538 13.4117C14.9136 13.4117 13.5968 14.7285 13.5968 16.3529V31.647C13.5968 33.2714 14.9136 34.5882 16.538 34.5882H31.8321C33.4565 34.5882 34.7733 33.2714 34.7733 31.647V16.3529C34.7733 14.7285 33.4565 13.4117 31.8321 13.4117H16.538Z" fill="white"/></svg>