<svg width="364" height="428" viewBox="0 0 364 428" fill="none" xmlns="http://www.w3.org/2000/svg">
<path d="M213.781 427.563C95.9013 427.563 0 331.66 0 213.781C0 95.9013 95.9013 -1.52054e-05 213.781 -1.52054e-05C231.695 -1.52054e-05 249.504 2.22398 266.715 6.60798C277.503 9.35731 284.019 20.3306 281.271 31.1186C278.521 41.9053 267.552 48.4213 256.76 45.6747C242.801 42.1173 228.34 40.3133 213.781 40.3133C118.131 40.3133 40.3133 118.131 40.3133 213.781C40.3133 309.431 118.131 387.248 213.781 387.248C254.607 387.248 294.257 372.793 325.431 346.547C333.948 339.375 346.664 340.469 353.833 348.983C361.004 357.5 359.912 370.216 351.396 377.385C312.965 409.743 264.092 427.563 213.781 427.563Z" fill="#3462A5"/>
<path d="M213.781 363.021C131.489 363.021 64.5414 296.072 64.5414 213.781C64.5414 202.648 73.5654 193.624 84.6974 193.624C95.8307 193.624 104.855 202.648 104.855 213.781C104.855 273.842 153.72 322.706 213.781 322.706C273.843 322.706 322.707 273.842 322.707 213.781C322.707 153.718 273.843 104.854 213.781 104.854C202.648 104.854 193.624 95.8304 193.624 84.6984C193.624 73.5664 202.648 64.541 213.781 64.541C296.072 64.541 363.021 131.49 363.021 213.781C363.021 296.072 296.072 363.021 213.781 363.021Z" fill="#1FA3CA"/>
<path d="M242.357 293.137C235.987 293.137 229.895 289.494 227.072 283.322C223.213 274.886 226.924 264.918 235.36 261.058C253.812 252.62 265.735 234.061 265.735 213.781C265.735 185.134 242.428 161.829 213.781 161.829C185.135 161.829 161.828 185.134 161.828 213.781C161.828 224.869 165.269 235.444 171.777 244.365C177.247 251.858 175.604 262.366 168.109 267.834C160.615 273.305 150.107 271.662 144.639 264.166C133.907 249.458 128.233 232.036 128.233 213.781C128.233 166.609 166.609 128.233 213.781 128.233C260.952 128.233 299.329 166.609 299.329 213.781C299.329 247.169 279.705 277.72 249.333 291.61C247.069 292.646 244.693 293.137 242.357 293.137Z" fill="#5CCBE5"/>
</svg>
